<svg width="1440" height="1024" viewBox="0 0 1440 1024" fill="none" xmlns="http://www.w3.org/2000/svg">
<rect width="1440" height="1024" fill="white"/>
<rect x="545" y="278" width="175" height="30" rx="15" fill="black"/>
<g filter="url(#filter0_d_0_3)">
<path d="M621.01 285.2H626.674V302H621.01V285.2ZM615.778 302H610.114V285.2H615.778V302ZM621.394 295.808H615.394V291.152H621.394V295.808ZM628.707 302V298.52L634.779 292.904C635.163 292.536 635.443 292.216 635.619 291.944C635.811 291.672 635.939 291.432 636.003 291.224C636.067 291 636.099 290.792 636.099 290.6C636.099 290.184 635.963 289.864 635.691 289.64C635.419 289.4 635.011 289.28 634.467 289.28C633.971 289.28 633.499 289.416 633.051 289.688C632.603 289.944 632.251 290.328 631.995 290.84L627.723 288.704C628.331 287.552 629.243 286.616 630.459 285.896C631.675 285.176 633.187 284.816 634.995 284.816C636.323 284.816 637.499 285.032 638.523 285.464C639.547 285.896 640.347 286.504 640.923 287.288C641.499 288.072 641.787 289 641.787 290.072C641.787 290.616 641.715 291.16 641.571 291.704C641.443 292.248 641.171 292.824 640.755 293.432C640.339 294.024 639.723 294.688 638.907 295.424L634.347 299.576L633.459 297.608H642.171V302H628.707ZM650.941 302.384C649.453 302.384 648.133 302.04 646.981 301.352C645.845 300.664 644.949 299.664 644.293 298.352C643.653 297.04 643.333 295.456 643.333 293.6C643.333 291.744 643.653 290.16 644.293 288.848C644.949 287.536 645.845 286.536 646.981 285.848C648.133 285.16 649.453 284.816 650.941 284.816C652.429 284.816 653.741 285.16 654.877 285.848C656.029 286.536 656.925 287.536 657.565 288.848C658.221 290.16 658.549 291.744 658.549 293.6C658.549 295.456 658.221 297.04 657.565 298.352C656.925 299.664 656.029 300.664 654.877 301.352C653.741 302.04 652.429 302.384 650.941 302.384ZM650.941 297.848C651.309 297.848 651.637 297.72 651.925 297.464C652.213 297.208 652.437 296.768 652.597 296.144C652.773 295.52 652.861 294.672 652.861 293.6C652.861 292.512 652.773 291.664 652.597 291.056C652.437 290.432 652.213 289.992 651.925 289.736C651.637 289.48 651.309 289.352 650.941 289.352C650.573 289.352 650.245 289.48 649.957 289.736C649.669 289.992 649.437 290.432 649.261 291.056C649.101 291.664 649.021 292.512 649.021 293.6C649.021 294.672 649.101 295.52 649.261 296.144C649.437 296.768 649.669 297.208 649.957 297.464C650.245 297.72 650.573 297.848 650.941 297.848Z" fill="#00A3FF"/>
</g>
<defs>
<filter id="filter0_d_0_3" x="606.114" y="284.816" width="56.4346" height="25.568" filterUnits="userSpaceOnUse" color-interpolation-filters="sRGB">
<feFlood flood-opacity="0" result="BackgroundImageFix"/>
<feColorMatrix in="SourceAlpha" type="matrix" values="0 0 0 0 0 0 0 0 0 0 0 0 0 0 0 0 0 0 127 0" result="hardAlpha"/>
<feOffset dy="4"/>
<feGaussianBlur stdDeviation="2"/>
<feComposite in2="hardAlpha" operator="out"/>
<feColorMatrix type="matrix" values="0 0 0 0 0 0 0 0 0 0 0 0 0 0 0 0 0 0 0.25 0"/>
<feBlend mode="normal" in2="BackgroundImageFix" result="effect1_dropShadow_0_3"/>
<feBlend mode="normal" in="SourceGraphic" in2="effect1_dropShadow_0_3" result="shape"/>
</filter>
</defs>
</svg>
